<svg width="1920" height="967" xmlns="http://www.w3.org/2000/svg"><g><path d="M-62.66019752249122,-74.01854764670134L-122.6650405023247,47.31805390678346L133.8997121527791,75.23325604386628Z" fill="#fff3db" stroke="#fff3db" fill-opacity="1" stroke-opacity="1"/><path d="M-62.66019752249122,-74.01854764670134L133.8997121527791,75.23325604386628L29.119727527722716,-116.70781857334077Z" fill="#fff3df" stroke="#fff3df" fill-opacity="1" stroke-opacity="1"/><path d="M29.119727527722716,-116.70781857334077L133.8997121527791,75.23325604386628L189.51357864774764,-56.10921266488731Z" fill="#fff0da" stroke="#fff0da" fill-opacity="1" stroke-opacity="1"/><path d="M29.119727527722716,-116.70781857334077L189.51357864774764,-56.10921266488731L423.4572718385607,-77.67153605818748Z" fill="#ffecd8" stroke="#ffecd8" fill-opacity="1" stroke-opacity="1"/><path d="M29.119727527722716,-116.70781857334077L423.4572718385607,-77.67153605818748L991.1990752536803,-114.98972682282329Z" fill="#fee3ca" stroke="#fee3ca" fill-opacity="1" stroke-opacity="1"/><path d="M189.51357864774764,-56.10921266488731L133.8997121527791,75.23325604386628L187.42735530249774,35.940938126295805Z" fill="#ffedd0" stroke="#ffedd0" fill-opacity="1" stroke-opacity="1"/><path d="M189.51357864774764,-56.10921266488731L187.42735530249774,35.940938126295805L396.80413509719074,75.512132383883Z" fill="#ffeacc" stroke="#ffeacc" fill-opacity="1" stroke-opacity="1"/><path d="M189.51357864774764,-56.10921266488731L396.80413509719074,75.512132383883L423.4572718385607,-77.67153605818748Z" fill="#fee8cc" stroke="#fee8cc" fill-opacity="1" stroke-opacity="1"/><path d="M423.4572718385607,-77.67153605818748L396.80413509719074,75.512132383883L522.8302253969014,43.11989290639758Z" fill="#fee4c2" stroke="#fee4c2" fill-opacity="1" stroke-opacity="1"/><path d="M423.4572718385607,-77.67153605818748L522.8302253969014,43.11989290639758L545.3018378745764,-20.609968369826674Z" fill="#fee2c4" stroke="#fee2c4" fill-opacity="1" stroke-opacity="1"/><path d="M423.4572718385607,-77.67153605818748L545.3018378745764,-20.609968369826674L719.4359421730042,-16.893702372908592Z" fill="#fee0c3" stroke="#fee0c3" fill-opacity="1" stroke-opacity="1"/><path d="M423.4572718385607,-77.67153605818748L719.4359421730042,-16.893702372908592L844.195983717218,-52.81655059196055Z" fill="#fedbbe" stroke="#fedbbe" fill-opacity="1" stroke-opacity="1"/><path d="M423.4572718385607,-77.67153605818748L844.195983717218,-52.81655059196055L991.1990752536803,-114.98972682282329Z" fill="#fcd3bb" stroke="#fcd3bb" fill-opacity="1" stroke-opacity="1"/><path d="M545.3018378745764,-20.609968369826674L522.8302253969014,43.11989290639758L618.8740934897214,108.33448517136276Z" fill="#fedeb8" stroke="#fedeb8" fill-opacity="1" stroke-opacity="1"/><path d="M545.3018378745764,-20.609968369826674L618.8740934897214,108.33448517136276L719.4359421730042,-16.893702372908592Z" fill="#feddb7" stroke="#feddb7" fill-opacity="1" stroke-opacity="1"/><path d="M719.4359421730042,-16.893702372908592L618.8740934897214,108.33448517136276L717.6832494232804,180.3030247427523Z" fill="#fdd5ab" stroke="#fdd5ab" fill-opacity="1" stroke-opacity="1"/><path d="M719.4359421730042,-16.893702372908592L717.6832494232804,180.3030247427523L824.668058026582,131.51099109090865Z" fill="#fccea6" stroke="#fccea6" fill-opacity="1" stroke-opacity="1"/><path d="M719.4359421730042,-16.893702372908592L824.668058026582,131.51099109090865L844.195983717218,-52.81655059196055Z" fill="#fbcead" stroke="#fbcead" fill-opacity="1" stroke-opacity="1"/><path d="M844.195983717218,-52.81655059196055L824.668058026582,131.51099109090865L999.0442459378392,15.806998685002327Z" fill="#f9c6a6" stroke="#f9c6a6" fill-opacity="1" stroke-opacity="1"/><path d="M844.195983717218,-52.81655059196055L999.0442459378392,15.806998685002327L991.1990752536803,-114.98972682282329Z" fill="#f8c2ad" stroke="#f8c2ad" fill-opacity="1" stroke-opacity="1"/><path d="M991.1990752536803,-114.98972682282329L999.0442459378392,15.806998685002327L1084.6947552915663,-39.35574408620596Z" fill="#f6bba7" stroke="#f6bba7" fill-opacity="1" stroke-opacity="1"/><path d="M991.1990752536803,-114.98972682282329L1084.6947552915663,-39.35574408620596L1230.7040478195995,-85.12935440987349Z" fill="#f5b4a5" stroke="#f5b4a5" fill-opacity="1" stroke-opacity="1"/><path d="M991.1990752536803,-114.98972682282329L1230.7040478195995,-85.12935440987349L1537.8812786657363,-95.53943605162203Z" fill="#f2a79b" stroke="#f2a79b" fill-opacity="1" stroke-opacity="1"/><path d="M991.1990752536803,-114.98972682282329L1537.8812786657363,-95.53943605162203L2058.746936218813,-86.8699596170336Z" fill="#ec8f89" stroke="#ec8f89" fill-opacity="1" stroke-opacity="1"/><path d="M1084.6947552915663,-39.35574408620596L999.0442459378392,15.806998685002327L1170.3336877841502,89.73786796443164Z" fill="#f5b59b" stroke="#f5b59b" fill-opacity="1" stroke-opacity="1"/><path d="M1084.6947552915663,-39.35574408620596L1170.3336877841502,89.73786796443164L1230.7040478195995,-85.12935440987349Z" fill="#f4af9a" stroke="#f4af9a" fill-opacity="1" stroke-opacity="1"/><path d="M1230.7040478195995,-85.12935440987349L1170.3336877841502,89.73786796443164L1301.293024867773,51.64250317029655Z" fill="#f2a892" stroke="#f2a892" fill-opacity="1" stroke-opacity="1"/><path d="M1230.7040478195995,-85.12935440987349L1301.293024867773,51.64250317029655L1374.952395670116,-72.17753967270255Z" fill="#f1a394" stroke="#f1a394" fill-opacity="1" stroke-opacity="1"/><path d="M1230.7040478195995,-85.12935440987349L1374.952395670116,-72.17753967270255L1537.8812786657363,-95.53943605162203Z" fill="#ef9c93" stroke="#ef9c93" fill-opacity="1" stroke-opacity="1"/><path d="M1374.952395670116,-72.17753967270255L1301.293024867773,51.64250317029655L1454.354635309428,64.237468438223Z" fill="#ef9c89" stroke="#ef9c89" fill-opacity="1" stroke-opacity="1"/><path d="M1374.952395670116,-72.17753967270255L1454.354635309428,64.237468438223L1537.8812786657363,-95.53943605162203Z" fill="#ee958b" stroke="#ee958b" fill-opacity="1" stroke-opacity="1"/><path d="M1537.8812786657363,-95.53943605162203L1454.354635309428,64.237468438223L1608.721865778789,67.13582038879395Z" fill="#ec8e80" stroke="#ec8e80" fill-opacity="1" stroke-opacity="1"/><path d="M1537.8812786657363,-95.53943605162203L1608.721865778789,67.13582038879395L1749.8630140163004,-79.56488862633705Z" fill="#ea867f" stroke="#ea867f" fill-opacity="1" stroke-opacity="1"/><path d="M1537.8812786657363,-95.53943605162203L1749.8630140163004,-79.56488862633705L2058.746936218813,-86.8699596170336Z" fill="#e78080" stroke="#e78080" fill-opacity="1" stroke-opacity="1"/><path d="M1749.8630140163004,-79.56488862633705L1608.721865778789,67.13582038879395L1685.3189255855978,129.07407618127763Z" fill="#e97f73" stroke="#e97f73" fill-opacity="1" stroke-opacity="1"/><path d="M1749.8630140163004,-79.56488862633705L1685.3189255855978,129.07407618127763L1874.327293066308,33.94450533203781Z" fill="#e77e74" stroke="#e77e74" fill-opacity="1" stroke-opacity="1"/><path d="M1749.8630140163004,-79.56488862633705L1874.327293066308,33.94450533203781L1852.258887346834,-58.61333537846804Z" fill="#e6807c" stroke="#e6807c" fill-opacity="1" stroke-opacity="1"/><path d="M1749.8630140163004,-79.56488862633705L1852.258887346834,-58.61333537846804L2058.746936218813,-86.8699596170336Z" fill="#e58080" stroke="#e58080" fill-opacity="1" stroke-opacity="1"/><path d="M1852.258887346834,-58.61333537846804L1874.327293066308,33.94450533203781L2058.746936218813,-86.8699596170336Z" fill="#e4807c" stroke="#e4807c" fill-opacity="1" stroke-opacity="1"/><path d="M2058.746936218813,-86.8699596170336L1874.327293066308,33.94450533203781L2066.93229066208,88.22896384634078Z" fill="#e37f76" stroke="#e37f76" fill-opacity="1" stroke-opacity="1"/><path d="M-122.6650405023247,47.31805390678346L-122.14187873527408,424.9364751018584L-19.757554354146123,225.83460305817425Z" fill="#ffebc3" stroke="#ffebc3" fill-opacity="1" stroke-opacity="1"/><path d="M-122.6650405023247,47.31805390678346L-19.757554354146123,225.83460305817425L133.8997121527791,75.23325604386628Z" fill="#ffeecd" stroke="#ffeecd" fill-opacity="1" stroke-opacity="1"/><path d="M133.8997121527791,75.23325604386628L-19.757554354146123,225.83460305817425L90.91522201895714,272.9350805003196Z" fill="#ffe8c0" stroke="#ffe8c0" fill-opacity="1" stroke-opacity="1"/><path d="M133.8997121527791,75.23325604386628L90.91522201895714,272.9350805003196L252.26287306286395,184.09591125324368Z" fill="#ffe5bd" stroke="#ffe5bd" fill-opacity="1" stroke-opacity="1"/><path d="M133.8997121527791,75.23325604386628L252.26287306286395,184.09591125324368L187.42735530249774,35.940938126295805Z" fill="#ffe8c5" stroke="#ffe8c5" fill-opacity="1" stroke-opacity="1"/><path d="M187.42735530249774,35.940938126295805L252.26287306286395,184.09591125324368L396.80413509719074,75.512132383883Z" fill="#ffe5c0" stroke="#ffe5c0" fill-opacity="1" stroke-opacity="1"/><path d="M396.80413509719074,75.512132383883L252.26287306286395,184.09591125324368L408.34790454246104,223.12489192932844Z" fill="#fedfb5" stroke="#fedfb5" fill-opacity="1" stroke-opacity="1"/><path d="M396.80413509719074,75.512132383883L408.34790454246104,223.12489192932844L522.8302253969014,43.11989290639758Z" fill="#fedfb6" stroke="#fedfb6" fill-opacity="1" stroke-opacity="1"/><path d="M522.8302253969014,43.11989290639758L408.34790454246104,223.12489192932844L618.8740934897214,108.33448517136276Z" fill="#fedcb0" stroke="#fedcb0" fill-opacity="1" stroke-opacity="1"/><path d="M618.8740934897214,108.33448517136276L408.34790454246104,223.12489192932844L575.693261185661,269.8078999109566Z" fill="#fed7a6" stroke="#fed7a6" fill-opacity="1" stroke-opacity="1"/><path d="M618.8740934897214,108.33448517136276L575.693261185661,269.8078999109566L717.6832494232804,180.3030247427523Z" fill="#fed4a2" stroke="#fed4a2" fill-opacity="1" stroke-opacity="1"/><path d="M824.668058026582,131.51099109090865L717.6832494232804,180.3030247427523L809.3443840183318,202.5357231963426Z" fill="#fbc89b" stroke="#fbc89b" fill-opacity="1" stroke-opacity="1"/><path d="M824.668058026582,131.51099109090865L809.3443840183318,202.5357231963426L1000.5834635999054,169.2301696445793Z" fill="#f9c095" stroke="#f9c095" fill-opacity="1" stroke-opacity="1"/><path d="M824.668058026582,131.51099109090865L1000.5834635999054,169.2301696445793L999.0442459378392,15.806998685002327Z" fill="#f8be99" stroke="#f8be99" fill-opacity="1" stroke-opacity="1"/><path d="M999.0442459378392,15.806998685002327L1000.5834635999054,169.2301696445793L1098.8346216268837,179.03695874847472Z" fill="#f6b591" stroke="#f6b591" fill-opacity="1" stroke-opacity="1"/><path d="M999.0442459378392,15.806998685002327L1098.8346216268837,179.03695874847472L1170.3336877841502,89.73786796443164Z" fill="#f5b191" stroke="#f5b191" fill-opacity="1" stroke-opacity="1"/><path d="M1170.3336877841502,89.73786796443164L1098.8346216268837,179.03695874847472L1280.0723347440362,269.9629071727395Z" fill="#f3a480" stroke="#f3a480" fill-opacity="1" stroke-opacity="1"/><path d="M1170.3336877841502,89.73786796443164L1280.0723347440362,269.9629071727395L1301.293024867773,51.64250317029655Z" fill="#f2a082" stroke="#f2a082" fill-opacity="1" stroke-opacity="1"/><path d="M1301.293024867773,51.64250317029655L1280.0723347440362,269.9629071727395L1385.5074378848076,260.06641265004873Z" fill="#f09876" stroke="#f09876" fill-opacity="1" stroke-opacity="1"/><path d="M1301.293024867773,51.64250317029655L1385.5074378848076,260.06641265004873L1454.354635309428,64.237468438223Z" fill="#ef967b" stroke="#ef967b" fill-opacity="1" stroke-opacity="1"/><path d="M1454.354635309428,64.237468438223L1385.5074378848076,260.06641265004873L1517.9298077803105,205.6878448370844Z" fill="#ee8d70" stroke="#ee8d70" fill-opacity="1" stroke-opacity="1"/><path d="M1454.354635309428,64.237468438223L1517.9298077803105,205.6878448370844L1608.721865778789,67.13582038879395Z" fill="#ec8973" stroke="#ec8973" fill-opacity="1" stroke-opacity="1"/><path d="M1608.721865778789,67.13582038879395L1517.9298077803105,205.6878448370844L1685.3189255855978,129.07407618127763Z" fill="#eb826c" stroke="#eb826c" fill-opacity="1" stroke-opacity="1"/><path d="M1685.3189255855978,129.07407618127763L1517.9298077803105,205.6878448370844L1721.7379740346223,252.6523645967245Z" fill="#ea7b61" stroke="#ea7b61" fill-opacity="1" stroke-opacity="1"/><path d="M1685.3189255855978,129.07407618127763L1721.7379740346223,252.6523645967245L1833.0999332014471,176.8354839552194Z" fill="#e87760" stroke="#e87760" fill-opacity="1" stroke-opacity="1"/><path d="M1685.3189255855978,129.07407618127763L1833.0999332014471,176.8354839552194L1874.327293066308,33.94450533203781Z" fill="#e77a69" stroke="#e77a69" fill-opacity="1" stroke-opacity="1"/><path d="M1874.327293066308,33.94450533203781L1833.0999332014471,176.8354839552194L1974.6743416786194,171.47071581333876Z" fill="#e57968" stroke="#e57968" fill-opacity="1" stroke-opacity="1"/><path d="M1874.327293066308,33.94450533203781L1974.6743416786194,171.47071581333876L2066.93229066208,88.22896384634078Z" fill="#e37b6b" stroke="#e37b6b" fill-opacity="1" stroke-opacity="1"/><path d="M2066.93229066208,88.22896384634078L1974.6743416786194,171.47071581333876L2049.9968428350985,419.7785498108715Z" fill="#e2755b" stroke="#e2755b" fill-opacity="1" stroke-opacity="1"/><path d="M2066.93229066208,88.22896384634078L2049.9968428350985,419.7785498108715L2052.25419357419,682.269279928878Z" fill="#e16044" stroke="#e16044" fill-opacity="1" stroke-opacity="1"/><path d="M2066.93229066208,88.22896384634078L2052.25419357419,682.269279928878L2069.0413238760084,1158.4078059811145Z" fill="#e12d1f" stroke="#e12d1f" fill-opacity="1" stroke-opacity="1"/><path d="M-19.757554354146123,225.83460305817425L-122.14187873527408,424.9364751018584L55.217730989679694,356.1052140779793Z" fill="#ffe2b2" stroke="#ffe2b2" fill-opacity="1" stroke-opacity="1"/><path d="M-19.757554354146123,225.83460305817425L55.217730989679694,356.1052140779793L90.91522201895714,272.9350805003196Z" fill="#ffe4b6" stroke="#ffe4b6" fill-opacity="1" stroke-opacity="1"/><path d="M90.91522201895714,272.9350805003196L55.217730989679694,356.1052140779793L180.7560579199344,326.5124745480716Z" fill="#ffe0ad" stroke="#ffe0ad" fill-opacity="1" stroke-opacity="1"/><path d="M90.91522201895714,272.9350805003196L180.7560579199344,326.5124745480716L252.26287306286395,184.09591125324368Z" fill="#ffe1b1" stroke="#ffe1b1" fill-opacity="1" stroke-opacity="1"/><path d="M252.26287306286395,184.09591125324368L180.7560579199344,326.5124745480716L315.26088489219546,389.3682925309986Z" fill="#ffdca8" stroke="#ffdca8" fill-opacity="1" stroke-opacity="1"/><path d="M252.26287306286395,184.09591125324368L315.26088489219546,389.3682925309986L408.34790454246104,223.12489192932844Z" fill="#fedba8" stroke="#fedba8" fill-opacity="1" stroke-opacity="1"/><path d="M408.34790454246104,223.12489192932844L315.26088489219546,389.3682925309986L516.7647381685674,377.7727157715708Z" fill="#fed49c" stroke="#fed49c" fill-opacity="1" stroke-opacity="1"/><path d="M408.34790454246104,223.12489192932844L516.7647381685674,377.7727157715708L575.693261185661,269.8078999109566Z" fill="#fed49c" stroke="#fed49c" fill-opacity="1" stroke-opacity="1"/><path d="M575.693261185661,269.8078999109566L516.7647381685674,377.7727157715708L706.1509167216718,434.6675669029355Z" fill="#fec78d" stroke="#fec78d" fill-opacity="1" stroke-opacity="1"/><path d="M575.693261185661,269.8078999109566L706.1509167216718,434.6675669029355L717.6832494232804,180.3030247427523Z" fill="#fecc93" stroke="#fecc93" fill-opacity="1" stroke-opacity="1"/><path d="M717.6832494232804,180.3030247427523L706.1509167216718,434.6675669029355L820.900303311646,373.9746009092778Z" fill="#fcc289" stroke="#fcc289" fill-opacity="1" stroke-opacity="1"/><path d="M717.6832494232804,180.3030247427523L820.900303311646,373.9746009092778L809.3443840183318,202.5357231963426Z" fill="#fbc491" stroke="#fbc491" fill-opacity="1" stroke-opacity="1"/><path d="M809.3443840183318,202.5357231963426L820.900303311646,373.9746009092778L940.1643452234566,316.58779721707106Z" fill="#fabb86" stroke="#fabb86" fill-opacity="1" stroke-opacity="1"/><path d="M809.3443840183318,202.5357231963426L940.1643452234566,316.58779721707106L1000.5834635999054,169.2301696445793Z" fill="#f9b98b" stroke="#f9b98b" fill-opacity="1" stroke-opacity="1"/><path d="M1000.5834635999054,169.2301696445793L940.1643452234566,316.58779721707106L1098.8346216268837,179.03695874847472Z" fill="#f7b186" stroke="#f7b186" fill-opacity="1" stroke-opacity="1"/><path d="M1098.8346216268837,179.03695874847472L940.1643452234566,316.58779721707106L1160.8519466221333,386.5065511409193Z" fill="#f6a979" stroke="#f6a979" fill-opacity="1" stroke-opacity="1"/><path d="M1098.8346216268837,179.03695874847472L1160.8519466221333,386.5065511409193L1280.0723347440362,269.9629071727395Z" fill="#f3a074" stroke="#f3a074" fill-opacity="1" stroke-opacity="1"/><path d="M1280.0723347440362,269.9629071727395L1160.8519466221333,386.5065511409193L1317.2165920492262,429.00811093859375Z" fill="#f28f64" stroke="#f28f64" fill-opacity="1" stroke-opacity="1"/><path d="M1280.0723347440362,269.9629071727395L1317.2165920492262,429.00811093859375L1385.5074378848076,260.06641265004873Z" fill="#f09166" stroke="#f09166" fill-opacity="1" stroke-opacity="1"/><path d="M1385.5074378848076,260.06641265004873L1317.2165920492262,429.00811093859375L1442.6425362937152,342.926479652524Z" fill="#ef875e" stroke="#ef875e" fill-opacity="1" stroke-opacity="1"/><path d="M1385.5074378848076,260.06641265004873L1442.6425362937152,342.926479652524L1517.9298077803105,205.6878448370844Z" fill="#ee8864" stroke="#ee8864" fill-opacity="1" stroke-opacity="1"/><path d="M1517.9298077803105,205.6878448370844L1442.6425362937152,342.926479652524L1577.7587569411844,371.83373750187457Z" fill="#ed815c" stroke="#ed815c" fill-opacity="1" stroke-opacity="1"/><path d="M1517.9298077803105,205.6878448370844L1577.7587569411844,371.83373750187457L1721.7379740346223,252.6523645967245Z" fill="#eb7a5a" stroke="#eb7a5a" fill-opacity="1" stroke-opacity="1"/><path d="M1721.7379740346223,252.6523645967245L1577.7587569411844,371.83373750187457L1698.666498363018,385.48852398991585Z" fill="#e9704e" stroke="#e9704e" fill-opacity="1" stroke-opacity="1"/><path d="M1721.7379740346223,252.6523645967245L1698.666498363018,385.48852398991585L1896.7495305463672,379.0199055802077Z" fill="#e76c4c" stroke="#e76c4c" fill-opacity="1" stroke-opacity="1"/><path d="M1721.7379740346223,252.6523645967245L1896.7495305463672,379.0199055802077L1833.0999332014471,176.8354839552194Z" fill="#e67255" stroke="#e67255" fill-opacity="1" stroke-opacity="1"/><path d="M1833.0999332014471,176.8354839552194L1896.7495305463672,379.0199055802077L1974.6743416786194,171.47071581333876Z" fill="#e57459" stroke="#e57459" fill-opacity="1" stroke-opacity="1"/><path d="M1974.6743416786194,171.47071581333876L1896.7495305463672,379.0199055802077L2049.9968428350985,419.7785498108715Z" fill="#e3704f" stroke="#e3704f" fill-opacity="1" stroke-opacity="1"/><path d="M-122.14187873527408,424.9364751018584L-109.98624446801841,1156.9547624420375L-107.88341950625181,928.5028949473053Z" fill="#ff7c6b" stroke="#ff7c6b" fill-opacity="1" stroke-opacity="1"/><path d="M-122.14187873527408,424.9364751018584L-107.88341950625181,928.5028949473053L-94.82424966059625,575.1140406355262Z" fill="#ffa589" stroke="#ffa589" fill-opacity="1" stroke-opacity="1"/><path d="M-122.14187873527408,424.9364751018584L-94.82424966059625,575.1140406355262L68.34590094164014,492.7372803725302Z" fill="#ffc19b" stroke="#ffc19b" fill-opacity="1" stroke-opacity="1"/><path d="M-122.14187873527408,424.9364751018584L68.34590094164014,492.7372803725302L55.217730989679694,356.1052140779793Z" fill="#ffcea3" stroke="#ffcea3" fill-opacity="1" stroke-opacity="1"/><path d="M55.217730989679694,356.1052140779793L68.34590094164014,492.7372803725302L180.7560579199344,326.5124745480716Z" fill="#ffd2a3" stroke="#ffd2a3" fill-opacity="1" stroke-opacity="1"/><path d="M180.7560579199344,326.5124745480716L68.34590094164014,492.7372803725302L254.71990451216698,483.52724723517895Z" fill="#ffc699" stroke="#ffc699" fill-opacity="1" stroke-opacity="1"/><path d="M180.7560579199344,326.5124745480716L254.71990451216698,483.52724723517895L315.26088489219546,389.3682925309986Z" fill="#ffcb9a" stroke="#ffcb9a" fill-opacity="1" stroke-opacity="1"/><path d="M315.26088489219546,389.3682925309986L254.71990451216698,483.52724723517895L356.78646728396416,561.4038863964379Z" fill="#ffb88b" stroke="#ffb88b" fill-opacity="1" stroke-opacity="1"/><path d="M315.26088489219546,389.3682925309986L356.78646728396416,561.4038863964379L516.7647381685674,377.7727157715708Z" fill="#febd8c" stroke="#febd8c" fill-opacity="1" stroke-opacity="1"/><path d="M516.7647381685674,377.7727157715708L356.78646728396416,561.4038863964379L572.2913650609553,573.9150239154696Z" fill="#fead7e" stroke="#fead7e" fill-opacity="1" stroke-opacity="1"/><path d="M516.7647381685674,377.7727157715708L572.2913650609553,573.9150239154696L644.9626499321312,542.732081450522Z" fill="#feaa7a" stroke="#feaa7a" fill-opacity="1" stroke-opacity="1"/><path d="M516.7647381685674,377.7727157715708L644.9626499321312,542.732081450522L706.1509167216718,434.6675669029355Z" fill="#feb37e" stroke="#feb37e" fill-opacity="1" stroke-opacity="1"/><path d="M706.1509167216718,434.6675669029355L644.9626499321312,542.732081450522L848.9768705237657,537.0165643841028Z" fill="#fc9f6f" stroke="#fc9f6f" fill-opacity="1" stroke-opacity="1"/><path d="M706.1509167216718,434.6675669029355L848.9768705237657,537.0165643841028L820.900303311646,373.9746009092778Z" fill="#fba574" stroke="#fba574" fill-opacity="1" stroke-opacity="1"/><path d="M820.900303311646,373.9746009092778L848.9768705237657,537.0165643841028L955.4694004543126,519.395213490352Z" fill="#f9986b" stroke="#f9986b" fill-opacity="1" stroke-opacity="1"/><path d="M820.900303311646,373.9746009092778L955.4694004543126,519.395213490352L940.1643452234566,316.58779721707106Z" fill="#f9a574" stroke="#f9a574" fill-opacity="1" stroke-opacity="1"/><path d="M940.1643452234566,316.58779721707106L955.4694004543126,519.395213490352L1078.7069518771023,479.7514948993921Z" fill="#f79669" stroke="#f79669" fill-opacity="1" stroke-opacity="1"/><path d="M940.1643452234566,316.58779721707106L1078.7069518771023,479.7514948993921L1160.8519466221333,386.5065511409193Z" fill="#f6996b" stroke="#f6996b" fill-opacity="1" stroke-opacity="1"/><path d="M1160.8519466221333,386.5065511409193L1078.7069518771023,479.7514948993921L1243.4173973556608,477.19794826582074Z" fill="#f4855d" stroke="#f4855d" fill-opacity="1" stroke-opacity="1"/><path d="M1160.8519466221333,386.5065511409193L1243.4173973556608,477.19794826582074L1317.2165920492262,429.00811093859375Z" fill="#f2825a" stroke="#f2825a" fill-opacity="1" stroke-opacity="1"/><path d="M1317.2165920492262,429.00811093859375L1243.4173973556608,477.19794826582074L1402.4064485169947,566.0406318772584Z" fill="#f06e4c" stroke="#f06e4c" fill-opacity="1" stroke-opacity="1"/><path d="M1317.2165920492262,429.00811093859375L1402.4064485169947,566.0406318772584L1442.6425362937152,342.926479652524Z" fill="#ef714f" stroke="#ef714f" fill-opacity="1" stroke-opacity="1"/><path d="M1442.6425362937152,342.926479652524L1402.4064485169947,566.0406318772584L1577.7587569411844,371.83373750187457Z" fill="#ed6e4c" stroke="#ed6e4c" fill-opacity="1" stroke-opacity="1"/><path d="M1577.7587569411844,371.83373750187457L1402.4064485169947,566.0406318772584L1618.9095049537718,576.6904865764081Z" fill="#ec583d" stroke="#ec583d" fill-opacity="1" stroke-opacity="1"/><path d="M1577.7587569411844,371.83373750187457L1618.9095049537718,576.6904865764081L1698.666498363018,385.48852398991585Z" fill="#ea5c3f" stroke="#ea5c3f" fill-opacity="1" stroke-opacity="1"/><path d="M1698.666498363018,385.48852398991585L1618.9095049537718,576.6904865764081L1744.19611425139,545.3955130744725Z" fill="#e94b34" stroke="#e94b34" fill-opacity="1" stroke-opacity="1"/><path d="M1698.666498363018,385.48852398991585L1744.19611425139,545.3955130744725L1841.8901349976659,550.8087689056993Z" fill="#e74c35" stroke="#e74c35" fill-opacity="1" stroke-opacity="1"/><path d="M1698.666498363018,385.48852398991585L1841.8901349976659,550.8087689056993L1896.7495305463672,379.0199055802077Z" fill="#e6573d" stroke="#e6573d" fill-opacity="1" stroke-opacity="1"/><path d="M1896.7495305463672,379.0199055802077L1841.8901349976659,550.8087689056993L2035.160764278844,572.1520764101297Z" fill="#e44a34" stroke="#e44a34" fill-opacity="1" stroke-opacity="1"/><path d="M1896.7495305463672,379.0199055802077L2035.160764278844,572.1520764101297L2049.9968428350985,419.7785498108715Z" fill="#e3543a" stroke="#e3543a" fill-opacity="1" stroke-opacity="1"/><path d="M2049.9968428350985,419.7785498108715L2035.160764278844,572.1520764101297L2052.25419357419,682.269279928878Z" fill="#e23e2b" stroke="#e23e2b" fill-opacity="1" stroke-opacity="1"/><path d="M-94.82424966059625,575.1140406355262L-107.88341950625181,928.5028949473053L-92.44763547554612,854.2574673704803Z" fill="#ff8672" stroke="#ff8672" fill-opacity="1" stroke-opacity="1"/><path d="M-94.82424966059625,575.1140406355262L-92.44763547554612,854.2574673704803L-56.274386616423726,615.2019969094545Z" fill="#ff9c81" stroke="#ff9c81" fill-opacity="1" stroke-opacity="1"/><path d="M-94.82424966059625,575.1140406355262L-56.274386616423726,615.2019969094545L68.34590094164014,492.7372803725302Z" fill="#ffb390" stroke="#ffb390" fill-opacity="1" stroke-opacity="1"/><path d="M68.34590094164014,492.7372803725302L-56.274386616423726,615.2019969094545L117.42669579572976,716.8946414161474Z" fill="#ffa685" stroke="#ffa685" fill-opacity="1" stroke-opacity="1"/><path d="M68.34590094164014,492.7372803725302L117.42669579572976,716.8946414161474L192.32778045348823,663.4732155036181Z" fill="#ffa07f" stroke="#ffa07f" fill-opacity="1" stroke-opacity="1"/><path d="M68.34590094164014,492.7372803725302L192.32778045348823,663.4732155036181L254.71990451216698,483.52724723517895Z" fill="#ffaf88" stroke="#ffaf88" fill-opacity="1" stroke-opacity="1"/><path d="M254.71990451216698,483.52724723517895L192.32778045348823,663.4732155036181L356.78646728396416,561.4038863964379Z" fill="#ffa680" stroke="#ffa680" fill-opacity="1" stroke-opacity="1"/><path d="M356.78646728396416,561.4038863964379L192.32778045348823,663.4732155036181L325.62282250262797,683.3766984287649Z" fill="#ff9874" stroke="#ff9874" fill-opacity="1" stroke-opacity="1"/><path d="M356.78646728396416,561.4038863964379L325.62282250262797,683.3766984287649L568.7976407445967,716.5910044312477Z" fill="#fe906b" stroke="#fe906b" fill-opacity="1" stroke-opacity="1"/><path d="M356.78646728396416,561.4038863964379L568.7976407445967,716.5910044312477L572.2913650609553,573.9150239154696Z" fill="#fe946c" stroke="#fe946c" fill-opacity="1" stroke-opacity="1"/><path d="M572.2913650609553,573.9150239154696L568.7976407445967,716.5910044312477L728.5395930334926,647.0009854249656Z" fill="#fe8a61" stroke="#fe8a61" fill-opacity="1" stroke-opacity="1"/><path d="M572.2913650609553,573.9150239154696L728.5395930334926,647.0009854249656L644.9626499321312,542.732081450522Z" fill="#fe9568" stroke="#fe9568" fill-opacity="1" stroke-opacity="1"/><path d="M644.9626499321312,542.732081450522L728.5395930334926,647.0009854249656L848.9768705237657,537.0165643841028Z" fill="#fc8f64" stroke="#fc8f64" fill-opacity="1" stroke-opacity="1"/><path d="M848.9768705237657,537.0165643841028L728.5395930334926,647.0009854249656L883.7357664015144,663.8471466768533Z" fill="#fb8059" stroke="#fb8059" fill-opacity="1" stroke-opacity="1"/><path d="M848.9768705237657,537.0165643841028L883.7357664015144,663.8471466768533L955.4694004543126,519.395213490352Z" fill="#f9825b" stroke="#f9825b" fill-opacity="1" stroke-opacity="1"/><path d="M955.4694004543126,519.395213490352L883.7357664015144,663.8471466768533L970.1752301864326,724.5173142012209Z" fill="#f8724f" stroke="#f8724f" fill-opacity="1" stroke-opacity="1"/><path d="M955.4694004543126,519.395213490352L970.1752301864326,724.5173142012209L1078.7069518771023,479.7514948993921Z" fill="#f77854" stroke="#f77854" fill-opacity="1" stroke-opacity="1"/><path d="M1078.7069518771023,479.7514948993921L970.1752301864326,724.5173142012209L1168.3963555656374,720.5726990941912Z" fill="#f56445" stroke="#f56445" fill-opacity="1" stroke-opacity="1"/><path d="M1078.7069518771023,479.7514948993921L1168.3963555656374,720.5726990941912L1243.4173973556608,477.19794826582074Z" fill="#f46e4c" stroke="#f46e4c" fill-opacity="1" stroke-opacity="1"/><path d="M1243.4173973556608,477.19794826582074L1168.3963555656374,720.5726990941912L1227.9943635687232,708.5238077491522Z" fill="#f3593d" stroke="#f3593d" fill-opacity="1" stroke-opacity="1"/><path d="M1243.4173973556608,477.19794826582074L1227.9943635687232,708.5238077491522L1402.4064485169947,566.0406318772584Z" fill="#f15d40" stroke="#f15d40" fill-opacity="1" stroke-opacity="1"/><path d="M1402.4064485169947,566.0406318772584L1227.9943635687232,708.5238077491522L1393.4730855189264,726.3848977535963Z" fill="#f04730" stroke="#f04730" fill-opacity="1" stroke-opacity="1"/><path d="M1402.4064485169947,566.0406318772584L1393.4730855189264,726.3848977535963L1538.9907235465944,664.070762610063Z" fill="#ee412c" stroke="#ee412c" fill-opacity="1" stroke-opacity="1"/><path d="M1402.4064485169947,566.0406318772584L1538.9907235465944,664.070762610063L1618.9095049537718,576.6904865764081Z" fill="#ec452f" stroke="#ec452f" fill-opacity="1" stroke-opacity="1"/><path d="M1618.9095049537718,576.6904865764081L1538.9907235465944,664.070762610063L1695.7401106506586,616.0629386175424Z" fill="#ea3926" stroke="#ea3926" fill-opacity="1" stroke-opacity="1"/><path d="M1618.9095049537718,576.6904865764081L1695.7401106506586,616.0629386175424L1744.19611425139,545.3955130744725Z" fill="#e93b28" stroke="#e93b28" fill-opacity="1" stroke-opacity="1"/><path d="M1744.19611425139,545.3955130744725L1695.7401106506586,616.0629386175424L1841.8901349976659,550.8087689056993Z" fill="#e73c29" stroke="#e73c29" fill-opacity="1" stroke-opacity="1"/><path d="M1841.8901349976659,550.8087689056993L1695.7401106506586,616.0629386175424L1909.711673380807,634.949196903035Z" fill="#e63525" stroke="#e63525" fill-opacity="1" stroke-opacity="1"/><path d="M1841.8901349976659,550.8087689056993L1909.711673380807,634.949196903035L2035.160764278844,572.1520764101297Z" fill="#e43927" stroke="#e43927" fill-opacity="1" stroke-opacity="1"/><path d="M2035.160764278844,572.1520764101297L1909.711673380807,634.949196903035L2052.25419357419,682.269279928878Z" fill="#e32f20" stroke="#e32f20" fill-opacity="1" stroke-opacity="1"/><path d="M-56.274386616423726,615.2019969094545L-92.44763547554612,854.2574673704803L92.56710791029036,820.7523069530725Z" fill="#ff8871" stroke="#ff8871" fill-opacity="1" stroke-opacity="1"/><path d="M-56.274386616423726,615.2019969094545L92.56710791029036,820.7523069530725L117.42669579572976,716.8946414161474Z" fill="#ff8f75" stroke="#ff8f75" fill-opacity="1" stroke-opacity="1"/><path d="M117.42669579572976,716.8946414161474L92.56710791029036,820.7523069530725L262.06667091697454,868.2944386079907Z" fill="#ff7a62" stroke="#ff7a62" fill-opacity="1" stroke-opacity="1"/><path d="M117.42669579572976,716.8946414161474L262.06667091697454,868.2944386079907L192.32778045348823,663.4732155036181Z" fill="#ff8468" stroke="#ff8468" fill-opacity="1" stroke-opacity="1"/><path d="M192.32778045348823,663.4732155036181L262.06667091697454,868.2944386079907L343.403744911775,807.6744930166751Z" fill="#ff7a60" stroke="#ff7a60" fill-opacity="1" stroke-opacity="1"/><path d="M192.32778045348823,663.4732155036181L343.403744911775,807.6744930166751L325.62282250262797,683.3766984287649Z" fill="#ff8768" stroke="#ff8768" fill-opacity="1" stroke-opacity="1"/><path d="M325.62282250262797,683.3766984287649L343.403744911775,807.6744930166751L471.7065963987261,783.2524926960468Z" fill="#fe7b5d" stroke="#fe7b5d" fill-opacity="1" stroke-opacity="1"/><path d="M325.62282250262797,683.3766984287649L471.7065963987261,783.2524926960468L568.7976407445967,716.5910044312477Z" fill="#fe7f5e" stroke="#fe7f5e" fill-opacity="1" stroke-opacity="1"/><path d="M568.7976407445967,716.5910044312477L471.7065963987261,783.2524926960468L654.809570973739,879.2148131970316Z" fill="#fe6d4e" stroke="#fe6d4e" fill-opacity="1" stroke-opacity="1"/><path d="M568.7976407445967,716.5910044312477L654.809570973739,879.2148131970316L728.5395930334926,647.0009854249656Z" fill="#fe7350" stroke="#fe7350" fill-opacity="1" stroke-opacity="1"/><path d="M728.5395930334926,647.0009854249656L654.809570973739,879.2148131970316L766.0933661554009,851.7873555142432Z" fill="#fd6445" stroke="#fd6445" fill-opacity="1" stroke-opacity="1"/><path d="M728.5395930334926,647.0009854249656L766.0933661554009,851.7873555142432L883.7357664015144,663.8471466768533Z" fill="#fb6c4b" stroke="#fb6c4b" fill-opacity="1" stroke-opacity="1"/><path d="M883.7357664015144,663.8471466768533L766.0933661554009,851.7873555142432L965.001749061048,770.3518286347389Z" fill="#fa5d40" stroke="#fa5d40" fill-opacity="1" stroke-opacity="1"/><path d="M883.7357664015144,663.8471466768533L965.001749061048,770.3518286347389L970.1752301864326,724.5173142012209Z" fill="#f86042" stroke="#f86042" fill-opacity="1" stroke-opacity="1"/><path d="M970.1752301864326,724.5173142012209L965.001749061048,770.3518286347389L1168.3963555656374,720.5726990941912Z" fill="#f65339" stroke="#f65339" fill-opacity="1" stroke-opacity="1"/><path d="M1168.3963555656374,720.5726990941912L965.001749061048,770.3518286347389L1165.738425347954,859.2601248901337Z" fill="#f5442e" stroke="#f5442e" fill-opacity="1" stroke-opacity="1"/><path d="M1168.3963555656374,720.5726990941912L1165.738425347954,859.2601248901337L1278.4012013766915,824.3884562328458Z" fill="#f33725" stroke="#f33725" fill-opacity="1" stroke-opacity="1"/><path d="M1168.3963555656374,720.5726990941912L1278.4012013766915,824.3884562328458L1227.9943635687232,708.5238077491522Z" fill="#f2402b" stroke="#f2402b" fill-opacity="1" stroke-opacity="1"/><path d="M1227.9943635687232,708.5238077491522L1278.4012013766915,824.3884562328458L1393.4730855189264,726.3848977535963Z" fill="#f13926" stroke="#f13926" fill-opacity="1" stroke-opacity="1"/><path d="M1393.4730855189264,726.3848977535963L1278.4012013766915,824.3884562328458L1427.418221924454,847.2572054620832Z" fill="#ef291b" stroke="#ef291b" fill-opacity="1" stroke-opacity="1"/><path d="M1393.4730855189264,726.3848977535963L1427.418221924454,847.2572054620832L1538.9907235465944,664.070762610063Z" fill="#ee2d1e" stroke="#ee2d1e" fill-opacity="1" stroke-opacity="1"/><path d="M1538.9907235465944,664.070762610063L1427.418221924454,847.2572054620832L1604.8752710502595,849.2730693239719Z" fill="#ec1e13" stroke="#ec1e13" fill-opacity="1" stroke-opacity="1"/><path d="M1538.9907235465944,664.070762610063L1604.8752710502595,849.2730693239719L1695.7401106506586,616.0629386175424Z" fill="#ea2619" stroke="#ea2619" fill-opacity="1" stroke-opacity="1"/><path d="M1695.7401106506586,616.0629386175424L1604.8752710502595,849.2730693239719L1760.7381994463503,825.1123745273799Z" fill="#e9140c" stroke="#e9140c" fill-opacity="1" stroke-opacity="1"/><path d="M1695.7401106506586,616.0629386175424L1760.7381994463503,825.1123745273799L1909.711673380807,634.949196903035Z" fill="#e72217" stroke="#e72217" fill-opacity="1" stroke-opacity="1"/><path d="M1909.711673380807,634.949196903035L1760.7381994463503,825.1123745273799L1902.6846882607788,786.300266738981Z" fill="#e6160f" stroke="#e6160f" fill-opacity="1" stroke-opacity="1"/><path d="M1909.711673380807,634.949196903035L1902.6846882607788,786.300266738981L2022.93625571765,769.3428562581539Z" fill="#e41a11" stroke="#e41a11" fill-opacity="1" stroke-opacity="1"/><path d="M1909.711673380807,634.949196903035L2022.93625571765,769.3428562581539L2052.25419357419,682.269279928878Z" fill="#e32217" stroke="#e32217" fill-opacity="1" stroke-opacity="1"/><path d="M2052.25419357419,682.269279928878L2022.93625571765,769.3428562581539L2069.0413238760084,1158.4078059811145Z" fill="#e20000" stroke="#e20000" fill-opacity="1" stroke-opacity="1"/><path d="M-92.44763547554612,854.2574673704803L-107.88341950625181,928.5028949473053L28.211694611236453,1004.4574460852891Z" fill="#ff7667" stroke="#ff7667" fill-opacity="1" stroke-opacity="1"/><path d="M-92.44763547554612,854.2574673704803L28.211694611236453,1004.4574460852891L92.56710791029036,820.7523069530725Z" fill="#ff7464" stroke="#ff7464" fill-opacity="1" stroke-opacity="1"/><path d="M92.56710791029036,820.7523069530725L28.211694611236453,1004.4574460852891L281.4018337056041,919.8182245809585Z" fill="#ff705d" stroke="#ff705d" fill-opacity="1" stroke-opacity="1"/><path d="M92.56710791029036,820.7523069530725L281.4018337056041,919.8182245809585L262.06667091697454,868.2944386079907Z" fill="#ff6d59" stroke="#ff6d59" fill-opacity="1" stroke-opacity="1"/><path d="M262.06667091697454,868.2944386079907L281.4018337056041,919.8182245809585L343.403744911775,807.6744930166751Z" fill="#ff6a55" stroke="#ff6a55" fill-opacity="1" stroke-opacity="1"/><path d="M343.403744911775,807.6744930166751L281.4018337056041,919.8182245809585L417.7225848287344,918.518602559343Z" fill="#fe6852" stroke="#fe6852" fill-opacity="1" stroke-opacity="1"/><path d="M343.403744911775,807.6744930166751L417.7225848287344,918.518602559343L471.7065963987261,783.2524926960468Z" fill="#fe6a4f" stroke="#fe6a4f" fill-opacity="1" stroke-opacity="1"/><path d="M471.7065963987261,783.2524926960468L417.7225848287344,918.518602559343L654.809570973739,879.2148131970316Z" fill="#fe6249" stroke="#fe6249" fill-opacity="1" stroke-opacity="1"/><path d="M654.809570973739,879.2148131970316L417.7225848287344,918.518602559343L568.1159565690905,1031.8111344147474Z" fill="#fe6147" stroke="#fe6147" fill-opacity="1" stroke-opacity="1"/><path d="M654.809570973739,879.2148131970316L568.1159565690905,1031.8111344147474L678.4124703984708,941.4303977787495Z" fill="#fe5e43" stroke="#fe5e43" fill-opacity="1" stroke-opacity="1"/><path d="M654.809570973739,879.2148131970316L678.4124703984708,941.4303977787495L766.0933661554009,851.7873555142432Z" fill="#fd583e" stroke="#fd583e" fill-opacity="1" stroke-opacity="1"/><path d="M766.0933661554009,851.7873555142432L678.4124703984708,941.4303977787495L847.8993616160005,978.9012433681637Z" fill="#fc533a" stroke="#fc533a" fill-opacity="1" stroke-opacity="1"/><path d="M766.0933661554009,851.7873555142432L847.8993616160005,978.9012433681637L985.4903801064938,918.6387766990811Z" fill="#fa4a34" stroke="#fa4a34" fill-opacity="1" stroke-opacity="1"/><path d="M766.0933661554009,851.7873555142432L985.4903801064938,918.6387766990811L965.001749061048,770.3518286347389Z" fill="#f94831" stroke="#f94831" fill-opacity="1" stroke-opacity="1"/><path d="M965.001749061048,770.3518286347389L985.4903801064938,918.6387766990811L1087.4144550226629,925.9493022412062Z" fill="#f73d2b" stroke="#f73d2b" fill-opacity="1" stroke-opacity="1"/><path d="M965.001749061048,770.3518286347389L1087.4144550226629,925.9493022412062L1165.738425347954,859.2601248901337Z" fill="#f53827" stroke="#f53827" fill-opacity="1" stroke-opacity="1"/><path d="M1165.738425347954,859.2601248901337L1087.4144550226629,925.9493022412062L1231.7879264708608,948.9030897896737Z" fill="#f43021" stroke="#f43021" fill-opacity="1" stroke-opacity="1"/><path d="M1165.738425347954,859.2601248901337L1231.7879264708608,948.9030897896737L1278.4012013766915,824.3884562328458Z" fill="#f22a1d" stroke="#f22a1d" fill-opacity="1" stroke-opacity="1"/><path d="M1278.4012013766915,824.3884562328458L1231.7879264708608,948.9030897896737L1427.418221924454,847.2572054620832Z" fill="#f12218" stroke="#f12218" fill-opacity="1" stroke-opacity="1"/><path d="M1427.418221924454,847.2572054620832L1231.7879264708608,948.9030897896737L1420.5168367736042,1003.6989543400705Z" fill="#f01e15" stroke="#f01e15" fill-opacity="1" stroke-opacity="1"/><path d="M1427.418221924454,847.2572054620832L1420.5168367736042,1003.6989543400705L1591.2273530010134,992.1684722788632Z" fill="#ed140d" stroke="#ed140d" fill-opacity="1" stroke-opacity="1"/><path d="M1427.418221924454,847.2572054620832L1591.2273530010134,992.1684722788632L1604.8752710502595,849.2730693239719Z" fill="#ec0e09" stroke="#ec0e09" fill-opacity="1" stroke-opacity="1"/><path d="M1604.8752710502595,849.2730693239719L1591.2273530010134,992.1684722788632L1776.5467853005975,1016.9482249114662Z" fill="#ea0402" stroke="#ea0402" fill-opacity="1" stroke-opacity="1"/><path d="M1604.8752710502595,849.2730693239719L1776.5467853005975,1016.9482249114662L1760.7381994463503,825.1123745273799Z" fill="#e80000" stroke="#e80000" fill-opacity="1" stroke-opacity="1"/><path d="M1760.7381994463503,825.1123745273799L1776.5467853005975,1016.9482249114662L1855.177793763578,937.7835173718631Z" fill="#e70000" stroke="#e70000" fill-opacity="1" stroke-opacity="1"/><path d="M1760.7381994463503,825.1123745273799L1855.177793763578,937.7835173718631L1902.6846882607788,786.300266738981Z" fill="#e60100" stroke="#e60100" fill-opacity="1" stroke-opacity="1"/><path d="M1902.6846882607788,786.300266738981L1855.177793763578,937.7835173718631L1991.3688154891133,928.9701750688255Z" fill="#e40000" stroke="#e40000" fill-opacity="1" stroke-opacity="1"/><path d="M1902.6846882607788,786.300266738981L1991.3688154891133,928.9701750688255L2022.93625571765,769.3428562581539Z" fill="#e30603" stroke="#e30603" fill-opacity="1" stroke-opacity="1"/><path d="M2022.93625571765,769.3428562581539L1991.3688154891133,928.9701750688255L2069.0413238760084,1158.4078059811145Z" fill="#e20000" stroke="#e20000" fill-opacity="1" stroke-opacity="1"/><path d="M-107.88341950625181,928.5028949473053L-109.98624446801841,1156.9547624420375L28.211694611236453,1004.4574460852891Z" fill="#ff7668" stroke="#ff7668" fill-opacity="1" stroke-opacity="1"/><path d="M28.211694611236453,1004.4574460852891L-109.98624446801841,1156.9547624420375L52.57953557185829,1126.8709108047187Z" fill="#ff7565" stroke="#ff7565" fill-opacity="1" stroke-opacity="1"/><path d="M28.211694611236453,1004.4574460852891L52.57953557185829,1126.8709108047187L196.9764051027596,1094.3642243742943Z" fill="#ff715f" stroke="#ff715f" fill-opacity="1" stroke-opacity="1"/><path d="M28.211694611236453,1004.4574460852891L196.9764051027596,1094.3642243742943L281.4018337056041,919.8182245809585Z" fill="#ff6e5b" stroke="#ff6e5b" fill-opacity="1" stroke-opacity="1"/><path d="M281.4018337056041,919.8182245809585L196.9764051027596,1094.3642243742943L350.23186756297946,1175.1567617990077Z" fill="#ff6b56" stroke="#ff6b56" fill-opacity="1" stroke-opacity="1"/><path d="M281.4018337056041,919.8182245809585L350.23186756297946,1175.1567617990077L479.9787438288331,1069.2095833551139Z" fill="#fe6751" stroke="#fe6751" fill-opacity="1" stroke-opacity="1"/><path d="M281.4018337056041,919.8182245809585L479.9787438288331,1069.2095833551139L417.7225848287344,918.518602559343Z" fill="#fe664f" stroke="#fe664f" fill-opacity="1" stroke-opacity="1"/><path d="M417.7225848287344,918.518602559343L479.9787438288331,1069.2095833551139L568.1159565690905,1031.8111344147474Z" fill="#fe634a" stroke="#fe634a" fill-opacity="1" stroke-opacity="1"/><path d="M568.1159565690905,1031.8111344147474L479.9787438288331,1069.2095833551139L707.6433675549924,1077.311928709969Z" fill="#fe6045" stroke="#fe6045" fill-opacity="1" stroke-opacity="1"/><path d="M568.1159565690905,1031.8111344147474L707.6433675549924,1077.311928709969L678.4124703984708,941.4303977787495Z" fill="#fe5d42" stroke="#fe5d42" fill-opacity="1" stroke-opacity="1"/><path d="M678.4124703984708,941.4303977787495L707.6433675549924,1077.311928709969L847.8993616160005,978.9012433681637Z" fill="#fc553c" stroke="#fc553c" fill-opacity="1" stroke-opacity="1"/><path d="M847.8993616160005,978.9012433681637L707.6433675549924,1077.311928709969L854.762710807845,1128.7811088748276Z" fill="#fb4f38" stroke="#fb4f38" fill-opacity="1" stroke-opacity="1"/><path d="M847.8993616160005,978.9012433681637L854.762710807845,1128.7811088748276L939.1195911727846,1162.9184315912426Z" fill="#f94933" stroke="#f94933" fill-opacity="1" stroke-opacity="1"/><path d="M847.8993616160005,978.9012433681637L939.1195911727846,1162.9184315912426L985.4903801064938,918.6387766990811Z" fill="#f84530" stroke="#f84530" fill-opacity="1" stroke-opacity="1"/><path d="M985.4903801064938,918.6387766990811L939.1195911727846,1162.9184315912426L1117.8450721409172,1075.0688275694847Z" fill="#f73d2b" stroke="#f73d2b" fill-opacity="1" stroke-opacity="1"/><path d="M985.4903801064938,918.6387766990811L1117.8450721409172,1075.0688275694847L1087.4144550226629,925.9493022412062Z" fill="#f63827" stroke="#f63827" fill-opacity="1" stroke-opacity="1"/><path d="M1087.4144550226629,925.9493022412062L1117.8450721409172,1075.0688275694847L1231.7879264708608,948.9030897896737Z" fill="#f43122" stroke="#f43122" fill-opacity="1" stroke-opacity="1"/><path d="M1231.7879264708608,948.9030897896737L1117.8450721409172,1075.0688275694847L1226.559640550986,1093.6051676608622Z" fill="#f32d1f" stroke="#f32d1f" fill-opacity="1" stroke-opacity="1"/><path d="M1231.7879264708608,948.9030897896737L1226.559640550986,1093.6051676608622L1420.5168367736042,1003.6989543400705Z" fill="#f12419" stroke="#f12419" fill-opacity="1" stroke-opacity="1"/><path d="M1420.5168367736042,1003.6989543400705L1226.559640550986,1093.6051676608622L1462.5708043109626,1121.9117391016334Z" fill="#ef1d14" stroke="#ef1d14" fill-opacity="1" stroke-opacity="1"/><path d="M1420.5168367736042,1003.6989543400705L1462.5708043109626,1121.9117391016334L1557.1050232462585,1113.9483076427132Z" fill="#ed140d" stroke="#ed140d" fill-opacity="1" stroke-opacity="1"/><path d="M1420.5168367736042,1003.6989543400705L1557.1050232462585,1113.9483076427132L1591.2273530010134,992.1684722788632Z" fill="#ec100a" stroke="#ec100a" fill-opacity="1" stroke-opacity="1"/><path d="M1591.2273530010134,992.1684722788632L1557.1050232462585,1113.9483076427132L1739.0469005797058,1121.5811003465205Z" fill="#ea0604" stroke="#ea0604" fill-opacity="1" stroke-opacity="1"/><path d="M1591.2273530010134,992.1684722788632L1739.0469005797058,1121.5811003465205L1776.5467853005975,1016.9482249114662Z" fill="#e90000" stroke="#e90000" fill-opacity="1" stroke-opacity="1"/><path d="M1776.5467853005975,1016.9482249114662L1739.0469005797058,1121.5811003465205L1914.490954997018,1068.0582755059004Z" fill="#e60000" stroke="#e60000" fill-opacity="1" stroke-opacity="1"/><path d="M1776.5467853005975,1016.9482249114662L1914.490954997018,1068.0582755059004L1855.177793763578,937.7835173718631Z" fill="#e60000" stroke="#e60000" fill-opacity="1" stroke-opacity="1"/><path d="M1855.177793763578,937.7835173718631L1914.490954997018,1068.0582755059004L1991.3688154891133,928.9701750688255Z" fill="#e40000" stroke="#e40000" fill-opacity="1" stroke-opacity="1"/><path d="M1991.3688154891133,928.9701750688255L1914.490954997018,1068.0582755059004L2069.0413238760084,1158.4078059811145Z" fill="#e30000" stroke="#e30000" fill-opacity="1" stroke-opacity="1"/><path d="M-109.98624446801841,1156.9547624420375L350.23186756297946,1175.1567617990077L52.57953557185829,1126.8709108047187Z" fill="#ff715f" stroke="#ff715f" fill-opacity="1" stroke-opacity="1"/><path d="M52.57953557185829,1126.8709108047187L350.23186756297946,1175.1567617990077L196.9764051027596,1094.3642243742943Z" fill="#ff6d5a" stroke="#ff6d5a" fill-opacity="1" stroke-opacity="1"/><path d="M350.23186756297946,1175.1567617990077L2069.0413238760084,1158.4078059811145L939.1195911727846,1162.9184315912426Z" fill="#f53324" stroke="#f53324" fill-opacity="1" stroke-opacity="1"/><path d="M350.23186756297946,1175.1567617990077L939.1195911727846,1162.9184315912426L854.762710807845,1128.7811088748276Z" fill="#fd573e" stroke="#fd573e" fill-opacity="1" stroke-opacity="1"/><path d="M350.23186756297946,1175.1567617990077L854.762710807845,1128.7811088748276L707.6433675549924,1077.311928709969Z" fill="#fe5e42" stroke="#fe5e42" fill-opacity="1" stroke-opacity="1"/><path d="M350.23186756297946,1175.1567617990077L707.6433675549924,1077.311928709969L479.9787438288331,1069.2095833551139Z" fill="#fe6249" stroke="#fe6249" fill-opacity="1" stroke-opacity="1"/><path d="M939.1195911727846,1162.9184315912426L2069.0413238760084,1158.4078059811145L1462.5708043109626,1121.9117391016334Z" fill="#ed130c" stroke="#ed130c" fill-opacity="1" stroke-opacity="1"/><path d="M939.1195911727846,1162.9184315912426L1462.5708043109626,1121.9117391016334L1226.559640550986,1093.6051676608622Z" fill="#f32b1e" stroke="#f32b1e" fill-opacity="1" stroke-opacity="1"/><path d="M939.1195911727846,1162.9184315912426L1226.559640550986,1093.6051676608622L1117.8450721409172,1075.0688275694847Z" fill="#f53625" stroke="#f53625" fill-opacity="1" stroke-opacity="1"/><path d="M1462.5708043109626,1121.9117391016334L2069.0413238760084,1158.4078059811145L1739.0469005797058,1121.5811003465205Z" fill="#e80000" stroke="#e80000" fill-opacity="1" stroke-opacity="1"/><path d="M1462.5708043109626,1121.9117391016334L1739.0469005797058,1121.5811003465205L1557.1050232462585,1113.9483076427132Z" fill="#eb0a06" stroke="#eb0a06" fill-opacity="1" stroke-opacity="1"/><path d="M1739.0469005797058,1121.5811003465205L2069.0413238760084,1158.4078059811145L1914.490954997018,1068.0582755059004Z" fill="#e50000" stroke="#e50000" fill-opacity="1" stroke-opacity="1"/></g></svg>